#!OML:ASF C:\Vicon Data\Big\jianyuan-13\jianyuan\Session 1\Capture.male.ASF
:FULLY-SPECIFIED
:DEGREES
223
root -5.606398 17.401794 -10.325396 5.298094 8.730407 3.087139
lowerback -8.097126 -1.560640 -5.310587 
upperback 3.319096 -1.417816 -0.845086 
thorax 8.187286 -0.944419 1.874575 
lowerneck -6.326483 -1.868150 2.044859 
upperneck 0.015164 -2.588513 -2.739203 
head 1.005211 -1.337219 -1.267425 
rclavicle 0.000000 0.000000 
rhumerus -44.758755 -18.745022 -76.597724 
rradius 27.574271 
rwrist 31.512305 
rhand -16.951974 -15.987390 
rfingers 0.000000 
rthumb 9.281658 -45.763054 
lclavicle 0.000000 0.000000 
lhumerus -18.127835 18.031362 88.592452 
lradius 30.599580 
lwrist -43.849013 
lhand -20.269770 1.318175 
lfingers 0.000000 
lthumb 6.079376 31.210965 
rfemur -33.176194 1.120148 14.762656 
rtibia 32.445392 
rfoot -11.699347 -10.025242 
rtoes -30.971368 
lfemur -2.651750 -3.320891 -28.152426 
ltibia 16.142116 
lfoot -15.427341 1.941432 
ltoes -26.977224 
224
root -5.599553 17.400479 -10.274374 5.318909 8.736560 3.078089
lowerback -8.166135 -1.573969 -5.314656 
upperback 3.324224 -1.431902 -0.825370 
thorax 8.234847 -0.953097 1.893879 
lowerneck -6.325232 -1.872329 2.062125 
upperneck 0.016237 -2.595268 -2.742529 
head 1.004972 -1.340619 -1.271613 
rclavicle 0.000000 0.000000 
rhumerus -44.623080 -18.633517 -76.691391 
rradius 27.546351 
rwrist 31.476087 
rhand -16.929263 -15.971629 
rfingers 0.000000 
rthumb 9.303582 -45.746347 
lclavicle 0.000000 0.000000 
lhumerus -18.191351 17.842012 88.660995 
lradius 30.637455 
lwrist -43.733183 
lhand -20.191826 1.221721 
lfingers 0.000000 
lthumb 6.154586 31.112316 
rfemur -33.185232 1.148666 14.796456 
rtibia 31.755445 
rfoot -11.636543 -10.245094 
rtoes -31.366015 
lfemur -2.306938 -3.303849 -28.148806 
ltibia 15.797774 
lfoot -15.390551 1.972269 
ltoes -27.069531 
225
root -5.593003 17.399555 -10.223294 5.322506 8.754810 3.112274
lowerback -8.172332 -1.578415 -5.351834 
upperback 3.309083 -1.434673 -0.812340 
thorax 8.223933 -0.956309 1.928226 
lowerneck -6.348043 -1.892780 2.035385 
upperneck 0.089807 -2.620073 -2.718136 
head 1.032034 -1.352874 -1.261312 
rclavicle 0.000000 0.000000 
rhumerus -44.618735 -18.598544 -76.707229 
rradius 27.642225 
rwrist 31.418900 
rhand -16.831776 -16.013827 
rfingers 0.000000 
rthumb 9.397703 -45.784335 
lclavicle 0.000000 0.000000 
lhumerus -18.291741 17.597608 88.745103 
lradius 30.685790 
lwrist -43.623648 
lhand -20.076482 1.148664 
lfingers 0.000000 
lthumb 6.265987 31.036013 
rfemur -33.138521 1.418626 14.669087 
rtibia 31.068953 
rfoot -11.622702 -10.590652 
rtoes -30.541720 
lfemur -1.939985 -3.316419 -28.194264 
ltibia 15.449403 
lfoot -15.357514 2.030816 
ltoes -27.282973 
226
root -5.585610 17.396600 -10.173489 5.303068 8.766152 3.096883
lowerback -8.169832 -1.588170 -5.298232 
upperback 3.316383 -1.454592 -0.802686 
thorax 8.230305 -0.963756 1.905248 
lowerneck -6.350293 -1.869926 2.031816 
upperneck 0.112197 -2.588343 -2.750938 
head 1.040106 -1.337636 -1.270653 
rclavicle 0.000000 0.000000 
rhumerus -44.511518 -18.575413 -76.743068 
rradius 27.638202 
rwrist 31.431489 
rhand -16.834318 -16.070555 
rfingers 0.000000 
rthumb 9.395182 -45.841199 
lclavicle 0.000000 0.000000 
lhumerus -18.378594 17.328701 88.814890 
lradius 30.765692 
lwrist -43.457022 
lhand -20.001105 1.261731 
lfingers 0.000000 
lthumb 6.338775 31.146919 
rfemur -33.073377 1.545772 14.660298 
rtibia 30.398761 
rfoot -11.556489 -10.735040 
rtoes -31.038833 
lfemur -1.573401 -3.323051 -28.188789 
ltibia 15.124368 
lfoot -15.334257 2.078584 
ltoes -27.287293 
227
root -5.579366 17.394618 -10.121531 5.329650 8.765824 3.098707
lowerback -8.216503 -1.577192 -5.286590 
upperback 3.312022 -1.439574 -0.786202 
thorax 8.251688 -0.956663 1.917590 
lowerneck -6.432853 -1.872342 2.026363 
upperneck 0.195885 -2.590555 -2.767137 
head 1.080816 -1.339681 -1.277491 
rclavicle 0.000000 0.000000 
rhumerus -44.423810 -18.540392 -76.761064 
rradius 27.617177 
rwrist 31.478803 
rhand -16.888670 -15.958721 
rfingers 0.000000 
rthumb 9.342746 -45.731747 
lclavicle 0.000000 0.000000 
lhumerus -18.447770 17.101441 88.946455 
lradius 30.837957 
lwrist -43.111011 
lhand -19.808362 1.270696 
lfingers 0.000000 
lthumb 6.524861 31.150177 
rfemur -33.066705 1.726915 14.597272 
rtibia 29.715844 
rfoot -11.256526 -10.921413 
rtoes -31.037649 
lfemur -1.283097 -3.247016 -28.187768 
ltibia 14.858960 
lfoot -15.307218 2.050421 
ltoes -27.473576 
228
root -5.571180 17.390700 -10.069417 5.340120 8.742847 3.081938
lowerback -8.257380 -1.565381 -5.225564 
upperback 3.310134 -1.428448 -0.783347 
thorax 8.270549 -0.948438 1.887309 
lowerneck -6.396242 -1.879668 2.008118 
upperneck 0.167777 -2.600134 -2.706875 
head 1.065966 -1.343166 -1.254460 
rclavicle 0.000000 0.000000 
rhumerus -44.328286 -18.463690 -76.833541 
rradius 27.662637 
rwrist 31.347932 
rhand -16.928163 -15.979271 
rfingers 0.000000 
rthumb 9.304663 -45.753958 
lclavicle 0.000000 0.000000 
lhumerus -18.528646 16.874489 89.009714 
lradius 30.908847 
lwrist -42.858846 
lhand -19.651433 1.328860 
lfingers 0.000000 
lthumb 6.676329 31.203592 
rfemur -33.032423 1.885162 14.582373 
rtibia 29.011485 
rfoot -10.952554 -11.016513 
rtoes -32.027777 
lfemur -0.988673 -3.258326 -28.189453 
ltibia 14.644655 
lfoot -15.386586 2.114764 
ltoes -27.486854 
229
root -5.562938 17.387130 -10.020122 5.358800 8.802865 3.064211
lowerback -8.236026 -1.573132 -5.133744 
upperback 3.275257 -1.451144 -0.795514 
thorax 8.218423 -0.952677 1.820587 
lowerneck -6.416391 -1.895833 2.092025 
upperneck 0.258798 -2.626280 -2.728226 
head 1.096725 -1.356642 -1.278015 
rclavicle 0.000000 0.000000 
rhumerus -44.320231 -18.476715 -76.886330 
rradius 27.700301 
rwrist 31.376618 
rhand -16.860798 -15.875790 
rfingers 0.000000 
rthumb 9.369651 -45.647584 
lclavicle 0.000000 0.000000 
lhumerus -18.676954 16.492403 89.059730 
lradius 31.046003 
lwrist -42.450608 
lhand -19.370709 1.420912 
lfingers 0.000000 
lthumb 6.947323 31.286882 
rfemur -32.969966 2.054311 14.516664 
rtibia 28.305666 
rfoot -10.610829 -11.157913 
rtoes -32.448371 
lfemur -0.748845 -3.297127 -28.177079 
ltibia 14.490862 
lfoot -15.439198 2.096247 
ltoes -27.477532 
230
root -5.557780 17.382796 -9.965799 5.428150 8.786036 3.018797
lowerback -8.356025 -1.571422 -5.067034 
upperback 3.258825 -1.451610 -0.768199 
thorax 8.269016 -0.950848 1.809672 
lowerneck -6.446964 -1.903265 2.109360 
upperneck 0.314316 -2.636085 -2.772404 
head 1.118880 -1.362539 -1.296618 
rclavicle 0.000000 0.000000 
rhumerus -44.252410 -18.433297 -76.934959 
rradius 27.757186 
rwrist 31.261395 
rhand -16.916864 -15.914856 
rfingers 0.000000 
rthumb 9.315580 -45.688988 
lclavicle 0.000000 0.000000 
lhumerus -18.816950 16.110690 89.192103 
lradius 31.271840 
lwrist -41.988875 
lhand -19.103657 1.761898 
lfingers 0.000000 
lthumb 7.205123 31.619213 
rfemur -32.940052 2.277147 14.492498 
rtibia 27.616064 
rfoot -10.398704 -11.218195 
rtoes -32.964931 
lfemur -0.544230 -3.313347 -28.134506 
ltibia 14.332315 
lfoot -15.525633 2.124835 
ltoes -27.605601 
231
root -5.553077 17.380903 -9.912931 5.460501 8.814167 2.984961
lowerback -8.420579 -1.557709 -4.989895 
upperback 3.268507 -1.437397 -0.774926 
thorax 8.313236 -0.940601 1.759928 
lowerneck -6.457631 -1.920792 2.126510 
upperneck 0.290292 -2.662433 -2.720207 
head 1.112669 -1.374752 -1.283542 
rclavicle 0.000000 0.000000 
rhumerus -44.137260 -18.451913 -77.021017 
rradius 27.808227 
rwrist 31.101761 
rhand -16.907688 -15.927316 
rfingers 0.000000 
rthumb 9.324425 -45.701107 
lclavicle 0.000000 0.000000 
lhumerus -18.878659 15.536795 89.313050 
lradius 31.416518 
lwrist -41.434263 
lhand -18.956500 2.058453 
lfingers 0.000000 
lthumb 7.347169 31.910864 
rfemur -32.874130 2.644660 14.352884 
rtibia 26.964224 
rfoot -10.386708 -11.340515 
rtoes -32.421354 
lfemur -0.304522 -3.299815 -28.094252 
ltibia 14.166576 
lfoot -15.553278 2.123159 
ltoes -27.657002 
232
root -5.548556 17.375001 -9.858425 5.450624 8.846841 3.011568
lowerback -8.422580 -1.562045 -5.012364 
upperback 3.263381 -1.441499 -0.763182 
thorax 8.310245 -0.944008 1.784377 
lowerneck -6.412946 -1.929142 2.094124 
upperneck 0.301011 -2.670456 -2.709771 
head 1.108515 -1.378381 -1.274220 
rclavicle 0.000000 0.000000 
rhumerus -44.079994 -18.351249 -77.073458 
rradius 27.868986 
rwrist 30.923289 
rhand -16.928762 -15.969460 
rfingers 0.000000 
rthumb 9.304098 -45.744175 
lclavicle 0.000000 0.000000 
lhumerus -19.028163 15.184925 89.423839 
lradius 31.668130 
lwrist -40.619507 
lhand -18.501587 1.929171 
lfingers 0.000000 
lthumb 7.786274 31.765764 
rfemur -32.763672 2.777650 14.270040 
rtibia 26.408446 
rfoot -10.330260 -11.270949 
rtoes -32.757076 
lfemur 0.044870 -3.334404 -28.128509 
ltibia 13.911681 
lfoot -15.571149 2.162372 
ltoes -27.545633 
233
root -5.544428 17.373866 -9.805146 5.502747 8.886952 3.014492
lowerback -8.486143 -1.575242 -4.996257 
upperback 3.253517 -1.458451 -0.749681 
thorax 8.337666 -0.952118 1.785694 
lowerneck -6.509765 -1.944243 2.150024 
upperneck 0.409209 -2.693123 -2.773776 
head 1.158072 -1.391435 -1.308094 
rclavicle 0.000000 0.000000 
rhumerus -43.994835 -18.285027 -77.162683 
rradius 27.914788 
rwrist 30.805913 
rhand -16.980672 -16.042437 
rfingers 0.000000 
rthumb 9.254029 -45.819403 
lclavicle 0.000000 0.000000 
lhumerus -19.143332 14.867824 89.533266 
lradius 31.918028 
lwrist -40.036110 
lhand -18.236982 1.984505 
lfingers 0.000000 
lthumb 8.041652 31.811506 
rfemur -32.755346 3.031652 14.132339 
rtibia 25.917387 
rfoot -10.447762 -11.218348 
rtoes -32.717457 
lfemur 0.329431 -3.312027 -28.119592 
ltibia 13.628019 
lfoot -15.528966 2.184334 
ltoes -27.769830 
234
root -5.541038 17.369415 -9.751341 5.465442 8.906236 3.018090
lowerback -8.461898 -1.570448 -5.001205 
upperback 3.264747 -1.453172 -0.742372 
thorax 8.335699 -0.950212 1.797406 
lowerneck -6.445070 -1.956372 2.214853 
upperneck 0.369970 -2.713218 -2.804385 
head 1.132884 -1.401396 -1.327826 
rclavicle 0.000000 0.000000 
rhumerus -43.916791 -18.182702 -77.232807 
rradius 27.909149 
rwrist 30.987594 
rhand -16.936109 -15.972947 
rfingers 0.000000 
rthumb 9.297032 -45.748000 
lclavicle 0.000000 0.000000 
lhumerus -19.345753 14.056774 89.693804 
lradius 32.353631 
lwrist -38.983796 
lhand -17.984643 2.239288 
lfingers 0.000000 
lthumb 8.285144 32.056818 
rfemur -32.630236 3.429489 13.950428 
rtibia 25.451436 
rfoot -10.499160 -11.234296 
rtoes -32.067639 
lfemur 0.715644 -3.306653 -28.125489 
ltibia 13.339069 
lfoot -15.493597 2.230509 
ltoes -27.801768 
235
root -5.535524 17.364809 -9.696245 5.521619 8.980351 3.031491
lowerback -8.551405 -1.562664 -4.978496 
upperback 3.275933 -1.440088 -0.734469 
thorax 8.398534 -0.944176 1.792925 
lowerneck -6.493550 -1.991511 2.220174 
upperneck 0.379130 -2.761194 -2.800476 
head 1.142891 -1.425598 -1.329797 
rclavicle 0.000000 0.000000 
rhumerus -43.822431 -18.183815 -77.251185 
rradius 27.956814 
rwrist 30.967554 
rhand -16.842358 -15.936157 
rfingers 0.000000 
rthumb 9.387434 -45.707066 
lclavicle 0.000000 0.000000 
lhumerus -19.385902 13.754944 89.871089 
lradius 32.548711 
lwrist -38.600050 
lhand -17.965009 2.261045 
lfingers 0.000000 
lthumb 8.304113 32.077820 
rfemur -32.554600 3.702617 13.793349 
rtibia 24.943263 
rfoot -10.539934 -11.252843 
rtoes -32.135271 
lfemur 0.971362 -3.364267 -28.136538 
ltibia 13.128728 
lfoot -15.504771 2.310470 
ltoes -28.108626 
